<?xml version="1.0" encoding="UTF-8" standalone="no"?>
<!DOCTYPE svg PUBLIC "-//W3C//DTD SVG 1.1//EN" "http://www.w3.org/Graphics/SVG/1.1/DTD/svg11.dtd">
<svg width="100%" height="100%" viewBox="0 0 284 284" version="1.1" xmlns="http://www.w3.org/2000/svg" xmlns:xlink="http://www.w3.org/1999/xlink" xml:space="preserve" xmlns:serif="http://www.serif.com/" style="fill-rule:evenodd;clip-rule:evenodd;stroke-linejoin:round;stroke-miterlimit:1.41421;">
    <rect id="Artboard1" x="0" y="0" width="283.465" height="283.465" style="fill:none;"/>
    <g id="Artboard11" serif:id="Artboard1">
        <path d="M167.761,208.179C169.277,202.233 171.322,192.847 177.934,184.782C181.528,180.397 185.2,179.622 189.27,181.294C193.339,182.965 193.484,184.346 191.74,186.453C189.996,188.56 181.785,200.768 175.1,216.1C167.175,234.276 151.412,229.906 151.412,229.906C151.412,229.906 149.656,227.719 151.412,224.591C152.843,222.04 155.937,222.204 155.937,222.204C165.323,223.031 166.251,214.105 167.761,208.179ZM78.27,156.083C84.46,159.84 86.829,164.728 86.352,172.915C86.048,178.138 84.801,192.787 89.776,204.166C95.413,217.063 105.256,227.944 111.255,229.21C120.552,231.173 143.196,218.655 161.665,185.315C167.109,175.487 168.756,173.102 175.1,170.694C185.393,166.787 255.683,151.229 266.631,148.516C277.579,145.803 277.482,145.222 278.16,142.509C278.838,139.796 278.935,129.526 278.742,126.62C278.548,123.713 276.886,124.447 274.479,124.779C256.257,127.292 222.344,130.631 216.391,131.065C187.099,133.201 159.05,131.346 140.036,127.955C105.157,121.735 53.29,105.883 47.598,104.188C45.335,103.514 43.753,103.599 41.65,104.432C39.547,105.266 13.246,115.349 8.282,117.102C4.273,118.519 4.956,120.635 7.163,121.69C12.511,124.248 33.981,134.169 41.964,138.355C49.948,142.54 70.118,151.135 78.27,156.083ZM79.374,175.245C80.309,178.236 77.805,183.383 78.27,198.09C78.735,212.797 72.98,206.926 70.131,198.962C68.363,194.017 68.512,186.839 69.375,182.686C70.208,178.68 72.704,174.534 75.003,172.915C76.742,171.691 78.289,171.772 79.374,175.245ZM106.818,113.066C112.146,79.882 140.85,53.169 175.003,53.098C211.987,53.021 240.809,82.237 243.065,120.639C238.373,121.132 232.503,121.804 227.897,122.265C227.27,92.996 204.318,68.255 174.867,68.255C147.508,68.255 124.171,89.992 120.45,116.554C116.372,115.572 109.689,113.761 106.818,113.066Z"/>
    </g>
</svg>
